<mxfile host="65bd71144e">
    <diagram name="Pagina-1" id="5u5Ws9eFnTiRm82nF7bv">
        <mxGraphModel dx="970" dy="688" grid="1" gridSize="10" guides="1" tooltips="1" connect="1" arrows="1" fold="1" page="1" pageScale="1" pageWidth="827" pageHeight="1169" math="0" shadow="0">
            <root>
                <mxCell id="0"/>
                <mxCell id="1" parent="0"/>
                <mxCell id="u5_9nWSxK2c27GnjZgB_-1" value="&lt;h1&gt;&lt;font color=&quot;#004c99&quot;&gt;&lt;span style=&quot;font-size: 36px;&quot;&gt;Pinauto_db&lt;/span&gt;&lt;/font&gt;&lt;/h1&gt;" style="text;html=1;align=center;verticalAlign=middle;whiteSpace=wrap;rounded=1;" parent="1" vertex="1">
                    <mxGeometry x="260" y="60" width="290" height="30" as="geometry"/>
                </mxCell>
                <mxCell id="u5_9nWSxK2c27GnjZgB_-210" value="&lt;h2&gt;&lt;font color=&quot;#66b2ff&quot;&gt;noleggio&lt;/font&gt;&lt;/h2&gt;" style="shape=table;startSize=30;container=1;collapsible=1;childLayout=tableLayout;fixedRows=1;rowLines=0;fontStyle=1;align=center;resizeLast=1;html=1;strokeColor=#C3ABD0;rounded=1;" parent="1" vertex="1">
                    <mxGeometry x="84" y="870" width="330" height="150" as="geometry"/>
                </mxCell>
                <mxCell id="u5_9nWSxK2c27GnjZgB_-211" value="" style="shape=tableRow;horizontal=0;startSize=0;swimlaneHead=0;swimlaneBody=0;fillColor=none;collapsible=0;dropTarget=0;points=[[0,0.5],[1,0.5]];portConstraint=eastwest;top=0;left=0;right=0;bottom=1;strokeColor=#C3ABD0;rounded=1;" parent="u5_9nWSxK2c27GnjZgB_-210" vertex="1">
                    <mxGeometry y="30" width="330" height="30" as="geometry"/>
                </mxCell>
                <mxCell id="u5_9nWSxK2c27GnjZgB_-212" value="&lt;font color=&quot;#33ff33&quot;&gt;PK&lt;/font&gt;" style="shape=partialRectangle;connectable=0;fillColor=none;top=0;left=0;bottom=0;right=0;fontStyle=1;overflow=hidden;whiteSpace=wrap;html=1;strokeColor=#C3ABD0;rounded=1;" parent="u5_9nWSxK2c27GnjZgB_-211" vertex="1">
                    <mxGeometry width="30" height="30" as="geometry">
                        <mxRectangle width="30" height="30" as="alternateBounds"/>
                    </mxGeometry>
                </mxCell>
                <mxCell id="u5_9nWSxK2c27GnjZgB_-213" value="" style="shape=partialRectangle;connectable=0;fillColor=none;top=0;left=0;bottom=0;right=0;align=left;spacingLeft=6;fontStyle=5;overflow=hidden;whiteSpace=wrap;html=1;strokeColor=#C3ABD0;rounded=1;" parent="u5_9nWSxK2c27GnjZgB_-211" vertex="1">
                    <mxGeometry x="30" width="300" height="30" as="geometry">
                        <mxRectangle width="300" height="30" as="alternateBounds"/>
                    </mxGeometry>
                </mxCell>
                <mxCell id="u5_9nWSxK2c27GnjZgB_-214" value="" style="shape=tableRow;horizontal=0;startSize=0;swimlaneHead=0;swimlaneBody=0;fillColor=none;collapsible=0;dropTarget=0;points=[[0,0.5],[1,0.5]];portConstraint=eastwest;top=0;left=0;right=0;bottom=0;strokeColor=#C3ABD0;rounded=1;" parent="u5_9nWSxK2c27GnjZgB_-210" vertex="1">
                    <mxGeometry y="60" width="330" height="30" as="geometry"/>
                </mxCell>
                <mxCell id="u5_9nWSxK2c27GnjZgB_-215" value="&lt;font color=&quot;#66ff66&quot;&gt;FK&lt;/font&gt;" style="shape=partialRectangle;connectable=0;fillColor=none;top=0;left=0;bottom=0;right=0;editable=1;overflow=hidden;whiteSpace=wrap;html=1;strokeColor=#C3ABD0;rounded=1;" parent="u5_9nWSxK2c27GnjZgB_-214" vertex="1">
                    <mxGeometry width="30" height="30" as="geometry">
                        <mxRectangle width="30" height="30" as="alternateBounds"/>
                    </mxGeometry>
                </mxCell>
                <mxCell id="u5_9nWSxK2c27GnjZgB_-216" value="&lt;font color=&quot;#66ff66&quot; style=&quot;text-align: center;&quot;&gt;dipartimento_id&amp;nbsp;&lt;/font&gt;&lt;font style=&quot;text-align: center;&quot; color=&quot;#66ff66&quot;&gt;bigint(20) unsigned&lt;/font&gt;&lt;font style=&quot;text-align: center;&quot; color=&quot;#c3abd0&quot;&gt;&amp;nbsp;&amp;nbsp;&lt;/font&gt;" style="shape=partialRectangle;connectable=0;fillColor=none;top=0;left=0;bottom=1;right=0;align=left;spacingLeft=6;overflow=hidden;whiteSpace=wrap;html=1;strokeColor=#C3ABD0;rounded=1;" parent="u5_9nWSxK2c27GnjZgB_-214" vertex="1">
                    <mxGeometry x="30" width="300" height="30" as="geometry">
                        <mxRectangle width="300" height="30" as="alternateBounds"/>
                    </mxGeometry>
                </mxCell>
                <mxCell id="u5_9nWSxK2c27GnjZgB_-217" value="" style="shape=tableRow;horizontal=0;startSize=0;swimlaneHead=0;swimlaneBody=0;fillColor=none;collapsible=0;dropTarget=0;points=[[0,0.5],[1,0.5]];portConstraint=eastwest;top=0;left=0;right=0;bottom=0;strokeColor=#C3ABD0;rounded=1;" parent="u5_9nWSxK2c27GnjZgB_-210" vertex="1">
                    <mxGeometry y="90" width="330" height="30" as="geometry"/>
                </mxCell>
                <mxCell id="u5_9nWSxK2c27GnjZgB_-218" value="" style="shape=partialRectangle;connectable=0;fillColor=none;top=0;left=0;bottom=0;right=0;editable=1;overflow=hidden;whiteSpace=wrap;html=1;strokeColor=#C3ABD0;rounded=1;" parent="u5_9nWSxK2c27GnjZgB_-217" vertex="1">
                    <mxGeometry width="30" height="30" as="geometry">
                        <mxRectangle width="30" height="30" as="alternateBounds"/>
                    </mxGeometry>
                </mxCell>
                <mxCell id="u5_9nWSxK2c27GnjZgB_-219" value="&lt;font style=&quot;text-align: center;&quot; color=&quot;#c3abd0&quot;&gt;ufficio&lt;/font&gt;&lt;span style=&quot;text-align: center;&quot;&gt;&amp;nbsp;&lt;/span&gt;&lt;span style=&quot;text-align: center; color: rgb(234, 107, 102);&quot;&gt;VARCHAR(255)&lt;/span&gt;" style="shape=partialRectangle;connectable=0;fillColor=none;top=0;left=0;bottom=1;right=0;align=left;spacingLeft=6;overflow=hidden;whiteSpace=wrap;html=1;strokeColor=#C3ABD0;rounded=1;" parent="u5_9nWSxK2c27GnjZgB_-217" vertex="1">
                    <mxGeometry x="30" width="300" height="30" as="geometry">
                        <mxRectangle width="300" height="30" as="alternateBounds"/>
                    </mxGeometry>
                </mxCell>
                <mxCell id="u5_9nWSxK2c27GnjZgB_-220" value="" style="shape=tableRow;horizontal=0;startSize=0;swimlaneHead=0;swimlaneBody=0;fillColor=none;collapsible=0;dropTarget=0;points=[[0,0.5],[1,0.5]];portConstraint=eastwest;top=0;left=0;right=0;bottom=0;strokeColor=#C3ABD0;rounded=1;" parent="u5_9nWSxK2c27GnjZgB_-210" vertex="1">
                    <mxGeometry y="120" width="330" height="30" as="geometry"/>
                </mxCell>
                <mxCell id="u5_9nWSxK2c27GnjZgB_-221" value="" style="shape=partialRectangle;connectable=0;fillColor=none;top=0;left=0;bottom=0;right=0;editable=1;overflow=hidden;whiteSpace=wrap;html=1;strokeColor=#C3ABD0;rounded=1;" parent="u5_9nWSxK2c27GnjZgB_-220" vertex="1">
                    <mxGeometry width="30" height="30" as="geometry">
                        <mxRectangle width="30" height="30" as="alternateBounds"/>
                    </mxGeometry>
                </mxCell>
                <mxCell id="u5_9nWSxK2c27GnjZgB_-222" value="&lt;div style=&quot;text-align: center;&quot;&gt;&lt;span style=&quot;background-color: initial;&quot;&gt;&lt;font color=&quot;#c3abd0&quot;&gt;phone &lt;/font&gt;&lt;font color=&quot;#ff6666&quot;&gt;VARCHAR(255)&lt;/font&gt;&lt;font color=&quot;#c3abd0&quot;&gt;&amp;nbsp;&lt;/font&gt;&lt;/span&gt;&lt;/div&gt;" style="shape=partialRectangle;connectable=0;fillColor=none;top=0;left=0;bottom=0;right=0;align=left;spacingLeft=6;overflow=hidden;whiteSpace=wrap;html=1;strokeColor=#C3ABD0;rounded=1;" parent="u5_9nWSxK2c27GnjZgB_-220" vertex="1">
                    <mxGeometry x="30" width="300" height="30" as="geometry">
                        <mxRectangle width="300" height="30" as="alternateBounds"/>
                    </mxGeometry>
                </mxCell>
                <mxCell id="u5_9nWSxK2c27GnjZgB_-235" value="&lt;span style=&quot;color: rgb(51, 255, 51);&quot;&gt;id int()&lt;/span&gt;" style="text;html=1;align=center;verticalAlign=middle;whiteSpace=wrap;rounded=1;strokeColor=#C3ABD0;" parent="1" vertex="1">
                    <mxGeometry x="114" y="900" width="300" height="30" as="geometry"/>
                </mxCell>
                <mxCell id="BtXo0TBB_qfzZxBrbs0A-2" value="&lt;h2&gt;&lt;font color=&quot;#66b2ff&quot;&gt;vendita&lt;/font&gt;&lt;/h2&gt;" style="shape=table;startSize=30;container=1;collapsible=1;childLayout=tableLayout;fixedRows=1;rowLines=0;fontStyle=1;align=center;resizeLast=1;html=1;strokeColor=#C3ABD0;rounded=1;" parent="1" vertex="1">
                    <mxGeometry x="90" y="330" width="330" height="150" as="geometry"/>
                </mxCell>
                <mxCell id="BtXo0TBB_qfzZxBrbs0A-3" value="" style="shape=tableRow;horizontal=0;startSize=0;swimlaneHead=0;swimlaneBody=0;fillColor=none;collapsible=0;dropTarget=0;points=[[0,0.5],[1,0.5]];portConstraint=eastwest;top=0;left=0;right=0;bottom=1;strokeColor=#C3ABD0;rounded=1;" parent="BtXo0TBB_qfzZxBrbs0A-2" vertex="1">
                    <mxGeometry y="30" width="330" height="30" as="geometry"/>
                </mxCell>
                <mxCell id="BtXo0TBB_qfzZxBrbs0A-4" value="&lt;font color=&quot;#33ff33&quot;&gt;PK&lt;/font&gt;" style="shape=partialRectangle;connectable=0;fillColor=none;top=0;left=0;bottom=0;right=0;fontStyle=1;overflow=hidden;whiteSpace=wrap;html=1;strokeColor=#C3ABD0;rounded=1;" parent="BtXo0TBB_qfzZxBrbs0A-3" vertex="1">
                    <mxGeometry width="30" height="30" as="geometry">
                        <mxRectangle width="30" height="30" as="alternateBounds"/>
                    </mxGeometry>
                </mxCell>
                <mxCell id="BtXo0TBB_qfzZxBrbs0A-5" value="" style="shape=partialRectangle;connectable=0;fillColor=none;top=0;left=0;bottom=0;right=0;align=left;spacingLeft=6;fontStyle=5;overflow=hidden;whiteSpace=wrap;html=1;strokeColor=#C3ABD0;rounded=1;" parent="BtXo0TBB_qfzZxBrbs0A-3" vertex="1">
                    <mxGeometry x="30" width="300" height="30" as="geometry">
                        <mxRectangle width="300" height="30" as="alternateBounds"/>
                    </mxGeometry>
                </mxCell>
                <mxCell id="BtXo0TBB_qfzZxBrbs0A-6" value="" style="shape=tableRow;horizontal=0;startSize=0;swimlaneHead=0;swimlaneBody=0;fillColor=none;collapsible=0;dropTarget=0;points=[[0,0.5],[1,0.5]];portConstraint=eastwest;top=0;left=0;right=0;bottom=0;strokeColor=#C3ABD0;rounded=1;" parent="BtXo0TBB_qfzZxBrbs0A-2" vertex="1">
                    <mxGeometry y="60" width="330" height="30" as="geometry"/>
                </mxCell>
                <mxCell id="BtXo0TBB_qfzZxBrbs0A-7" value="&lt;font color=&quot;#66ff66&quot;&gt;FK&lt;/font&gt;" style="shape=partialRectangle;connectable=0;fillColor=none;top=0;left=0;bottom=0;right=0;editable=1;overflow=hidden;whiteSpace=wrap;html=1;strokeColor=#C3ABD0;rounded=1;" parent="BtXo0TBB_qfzZxBrbs0A-6" vertex="1">
                    <mxGeometry width="30" height="30" as="geometry">
                        <mxRectangle width="30" height="30" as="alternateBounds"/>
                    </mxGeometry>
                </mxCell>
                <mxCell id="BtXo0TBB_qfzZxBrbs0A-8" value="&lt;div style=&quot;text-align: center;&quot;&gt;&lt;span style=&quot;background-color: initial;&quot;&gt;&lt;font color=&quot;#66ff66&quot;&gt;dipartimento_id&lt;/font&gt;&lt;font color=&quot;#c3abd0&quot;&gt; &lt;/font&gt;&lt;font color=&quot;#66ff66&quot;&gt;bigint(20) unsigned&lt;/font&gt;&lt;font color=&quot;#c3abd0&quot;&gt;&amp;nbsp;&amp;nbsp;&lt;/font&gt;&lt;/span&gt;&lt;/div&gt;" style="shape=partialRectangle;connectable=0;fillColor=none;top=0;left=0;bottom=1;right=0;align=left;spacingLeft=6;overflow=hidden;whiteSpace=wrap;html=1;strokeColor=#C3ABD0;rounded=1;" parent="BtXo0TBB_qfzZxBrbs0A-6" vertex="1">
                    <mxGeometry x="30" width="300" height="30" as="geometry">
                        <mxRectangle width="300" height="30" as="alternateBounds"/>
                    </mxGeometry>
                </mxCell>
                <mxCell id="BtXo0TBB_qfzZxBrbs0A-9" value="" style="shape=tableRow;horizontal=0;startSize=0;swimlaneHead=0;swimlaneBody=0;fillColor=none;collapsible=0;dropTarget=0;points=[[0,0.5],[1,0.5]];portConstraint=eastwest;top=0;left=0;right=0;bottom=0;strokeColor=#C3ABD0;rounded=1;" parent="BtXo0TBB_qfzZxBrbs0A-2" vertex="1">
                    <mxGeometry y="90" width="330" height="30" as="geometry"/>
                </mxCell>
                <mxCell id="BtXo0TBB_qfzZxBrbs0A-10" value="" style="shape=partialRectangle;connectable=0;fillColor=none;top=0;left=0;bottom=0;right=0;editable=1;overflow=hidden;whiteSpace=wrap;html=1;strokeColor=#C3ABD0;rounded=1;" parent="BtXo0TBB_qfzZxBrbs0A-9" vertex="1">
                    <mxGeometry width="30" height="30" as="geometry">
                        <mxRectangle width="30" height="30" as="alternateBounds"/>
                    </mxGeometry>
                </mxCell>
                <mxCell id="BtXo0TBB_qfzZxBrbs0A-11" value="&lt;div style=&quot;text-align: center;&quot;&gt;&lt;font color=&quot;#c3abd0&quot;&gt;ufficio&lt;/font&gt;&amp;nbsp;&lt;span style=&quot;color: rgb(234, 107, 102);&quot;&gt;VARCHAR(255)&lt;/span&gt;&lt;br&gt;&lt;/div&gt;" style="shape=partialRectangle;connectable=0;fillColor=none;top=0;left=0;bottom=1;right=0;align=left;spacingLeft=6;overflow=hidden;whiteSpace=wrap;html=1;strokeColor=#C3ABD0;rounded=1;" parent="BtXo0TBB_qfzZxBrbs0A-9" vertex="1">
                    <mxGeometry x="30" width="300" height="30" as="geometry">
                        <mxRectangle width="300" height="30" as="alternateBounds"/>
                    </mxGeometry>
                </mxCell>
                <mxCell id="32" value="" style="shape=tableRow;horizontal=0;startSize=0;swimlaneHead=0;swimlaneBody=0;fillColor=none;collapsible=0;dropTarget=0;points=[[0,0.5],[1,0.5]];portConstraint=eastwest;top=0;left=0;right=0;bottom=0;strokeColor=#C3ABD0;rounded=1;" vertex="1" parent="BtXo0TBB_qfzZxBrbs0A-2">
                    <mxGeometry y="120" width="330" height="30" as="geometry"/>
                </mxCell>
                <mxCell id="33" value="" style="shape=partialRectangle;connectable=0;fillColor=none;top=0;left=0;bottom=0;right=0;editable=1;overflow=hidden;whiteSpace=wrap;html=1;strokeColor=#C3ABD0;rounded=1;" vertex="1" parent="32">
                    <mxGeometry width="30" height="30" as="geometry">
                        <mxRectangle width="30" height="30" as="alternateBounds"/>
                    </mxGeometry>
                </mxCell>
                <mxCell id="34" value="&lt;span style=&quot;text-align: center;&quot;&gt;&lt;font color=&quot;#c3abd0&quot;&gt;email&lt;/font&gt;&amp;nbsp;&lt;font color=&quot;#ea6b66&quot;&gt;VARCHAR (255)&lt;/font&gt;&lt;/span&gt;" style="shape=partialRectangle;connectable=0;fillColor=none;top=0;left=0;bottom=1;right=0;align=left;spacingLeft=6;overflow=hidden;whiteSpace=wrap;html=1;strokeColor=#C3ABD0;rounded=1;" vertex="1" parent="32">
                    <mxGeometry x="30" width="300" height="30" as="geometry">
                        <mxRectangle width="300" height="30" as="alternateBounds"/>
                    </mxGeometry>
                </mxCell>
                <mxCell id="BtXo0TBB_qfzZxBrbs0A-21" value="&lt;span style=&quot;color: rgb(51, 255, 51);&quot;&gt;id int()&amp;nbsp;&lt;/span&gt;" style="text;html=1;align=center;verticalAlign=middle;whiteSpace=wrap;rounded=1;strokeColor=#C3ABD0;" parent="1" vertex="1">
                    <mxGeometry x="120" y="360" width="300" height="30" as="geometry"/>
                </mxCell>
                <mxCell id="BtXo0TBB_qfzZxBrbs0A-135" value="&lt;h2&gt;&lt;font color=&quot;#66b2ff&quot;&gt;dipartimento&lt;/font&gt;&lt;/h2&gt;" style="shape=table;startSize=30;container=1;collapsible=1;childLayout=tableLayout;fixedRows=1;rowLines=0;fontStyle=1;align=center;resizeLast=1;html=1;direction=east;flipV=0;flipH=0;strokeColor=#004C99;rounded=1;" parent="1" vertex="1">
                    <mxGeometry y="610" width="330" height="180" as="geometry"/>
                </mxCell>
                <mxCell id="BtXo0TBB_qfzZxBrbs0A-136" value="" style="shape=tableRow;horizontal=0;startSize=0;swimlaneHead=0;swimlaneBody=0;fillColor=none;collapsible=0;dropTarget=0;points=[[0,0.5],[1,0.5]];portConstraint=eastwest;top=0;left=0;right=0;bottom=1;strokeColor=#004C99;rounded=1;" parent="BtXo0TBB_qfzZxBrbs0A-135" vertex="1">
                    <mxGeometry y="30" width="330" height="30" as="geometry"/>
                </mxCell>
                <mxCell id="BtXo0TBB_qfzZxBrbs0A-137" value="&lt;font color=&quot;#33ff33&quot;&gt;PK&lt;/font&gt;" style="shape=partialRectangle;connectable=0;fillColor=none;top=0;left=0;bottom=0;right=0;fontStyle=1;overflow=hidden;whiteSpace=wrap;html=1;strokeColor=#004C99;rounded=1;" parent="BtXo0TBB_qfzZxBrbs0A-136" vertex="1">
                    <mxGeometry width="30" height="30" as="geometry">
                        <mxRectangle width="30" height="30" as="alternateBounds"/>
                    </mxGeometry>
                </mxCell>
                <mxCell id="BtXo0TBB_qfzZxBrbs0A-138" value="" style="shape=partialRectangle;connectable=0;fillColor=none;top=0;left=0;bottom=0;right=0;align=left;spacingLeft=6;fontStyle=5;overflow=hidden;whiteSpace=wrap;html=1;strokeColor=#004C99;rounded=1;" parent="BtXo0TBB_qfzZxBrbs0A-136" vertex="1">
                    <mxGeometry x="30" width="300" height="30" as="geometry">
                        <mxRectangle width="300" height="30" as="alternateBounds"/>
                    </mxGeometry>
                </mxCell>
                <mxCell id="BtXo0TBB_qfzZxBrbs0A-145" value="" style="shape=tableRow;horizontal=0;startSize=0;swimlaneHead=0;swimlaneBody=0;fillColor=none;collapsible=0;dropTarget=0;points=[[0,0.5],[1,0.5]];portConstraint=eastwest;top=0;left=0;right=0;bottom=0;strokeColor=#004C99;rounded=1;" parent="BtXo0TBB_qfzZxBrbs0A-135" vertex="1">
                    <mxGeometry y="60" width="330" height="30" as="geometry"/>
                </mxCell>
                <mxCell id="BtXo0TBB_qfzZxBrbs0A-146" value="" style="shape=partialRectangle;connectable=0;fillColor=none;top=0;left=0;bottom=0;right=0;editable=1;overflow=hidden;whiteSpace=wrap;html=1;strokeColor=#004C99;rounded=1;" parent="BtXo0TBB_qfzZxBrbs0A-145" vertex="1">
                    <mxGeometry width="30" height="30" as="geometry">
                        <mxRectangle width="30" height="30" as="alternateBounds"/>
                    </mxGeometry>
                </mxCell>
                <mxCell id="BtXo0TBB_qfzZxBrbs0A-147" value="&lt;font color=&quot;#c3abd0&quot; style=&quot;text-align: center;&quot;&gt;indirizzo &lt;/font&gt;&lt;font color=&quot;#ea6b66&quot; style=&quot;text-align: center;&quot;&gt;VARCHAR(255)&lt;/font&gt;" style="shape=partialRectangle;connectable=0;fillColor=none;top=0;left=0;bottom=0;right=0;align=left;spacingLeft=6;overflow=hidden;whiteSpace=wrap;html=1;strokeColor=#004C99;rounded=1;" parent="BtXo0TBB_qfzZxBrbs0A-145" vertex="1">
                    <mxGeometry x="30" width="300" height="30" as="geometry">
                        <mxRectangle width="300" height="30" as="alternateBounds"/>
                    </mxGeometry>
                </mxCell>
                <mxCell id="BtXo0TBB_qfzZxBrbs0A-148" value="" style="shape=tableRow;horizontal=0;startSize=0;swimlaneHead=0;swimlaneBody=0;fillColor=none;collapsible=0;dropTarget=0;points=[[0,0.5],[1,0.5]];portConstraint=eastwest;top=0;left=0;right=0;bottom=0;strokeColor=#004C99;rounded=1;" parent="BtXo0TBB_qfzZxBrbs0A-135" vertex="1">
                    <mxGeometry y="90" width="330" height="30" as="geometry"/>
                </mxCell>
                <mxCell id="BtXo0TBB_qfzZxBrbs0A-149" value="" style="shape=partialRectangle;connectable=0;fillColor=none;top=0;left=0;bottom=0;right=0;editable=1;overflow=hidden;whiteSpace=wrap;html=1;strokeColor=#004C99;rounded=1;" parent="BtXo0TBB_qfzZxBrbs0A-148" vertex="1">
                    <mxGeometry width="30" height="30" as="geometry">
                        <mxRectangle width="30" height="30" as="alternateBounds"/>
                    </mxGeometry>
                </mxCell>
                <mxCell id="BtXo0TBB_qfzZxBrbs0A-150" value="&lt;font style=&quot;text-align: center;&quot; color=&quot;#c3abd0&quot;&gt;email&amp;nbsp;&lt;/font&gt;&lt;font style=&quot;text-align: center;&quot; color=&quot;#ea6b66&quot;&gt;VARCHAR(255)&lt;/font&gt;" style="shape=partialRectangle;connectable=0;fillColor=none;top=0;left=0;bottom=0;right=0;align=left;spacingLeft=6;overflow=hidden;whiteSpace=wrap;html=1;strokeColor=#004C99;rounded=1;" parent="BtXo0TBB_qfzZxBrbs0A-148" vertex="1">
                    <mxGeometry x="30" width="300" height="30" as="geometry">
                        <mxRectangle width="300" height="30" as="alternateBounds"/>
                    </mxGeometry>
                </mxCell>
                <mxCell id="40" value="" style="shape=tableRow;horizontal=0;startSize=0;swimlaneHead=0;swimlaneBody=0;fillColor=none;collapsible=0;dropTarget=0;points=[[0,0.5],[1,0.5]];portConstraint=eastwest;top=0;left=0;right=0;bottom=0;strokeColor=#004C99;rounded=1;" vertex="1" parent="BtXo0TBB_qfzZxBrbs0A-135">
                    <mxGeometry y="120" width="330" height="30" as="geometry"/>
                </mxCell>
                <mxCell id="41" value="" style="shape=partialRectangle;connectable=0;fillColor=none;top=0;left=0;bottom=0;right=0;editable=1;overflow=hidden;whiteSpace=wrap;html=1;strokeColor=#004C99;rounded=1;" vertex="1" parent="40">
                    <mxGeometry width="30" height="30" as="geometry">
                        <mxRectangle width="30" height="30" as="alternateBounds"/>
                    </mxGeometry>
                </mxCell>
                <mxCell id="42" value="&lt;font style=&quot;text-align: center;&quot; color=&quot;#c3abd0&quot;&gt;capo_dipartimento&amp;nbsp;&lt;/font&gt;&lt;font style=&quot;text-align: center;&quot; color=&quot;#ea6b66&quot;&gt;VARCHAR(255)&lt;/font&gt;" style="shape=partialRectangle;connectable=0;fillColor=none;top=0;left=0;bottom=0;right=0;align=left;spacingLeft=6;overflow=hidden;whiteSpace=wrap;html=1;strokeColor=#004C99;rounded=1;" vertex="1" parent="40">
                    <mxGeometry x="30" width="300" height="30" as="geometry">
                        <mxRectangle width="300" height="30" as="alternateBounds"/>
                    </mxGeometry>
                </mxCell>
                <mxCell id="43" value="" style="shape=tableRow;horizontal=0;startSize=0;swimlaneHead=0;swimlaneBody=0;fillColor=none;collapsible=0;dropTarget=0;points=[[0,0.5],[1,0.5]];portConstraint=eastwest;top=0;left=0;right=0;bottom=0;strokeColor=#004C99;rounded=1;" vertex="1" parent="BtXo0TBB_qfzZxBrbs0A-135">
                    <mxGeometry y="150" width="330" height="30" as="geometry"/>
                </mxCell>
                <mxCell id="44" value="" style="shape=partialRectangle;connectable=0;fillColor=none;top=0;left=0;bottom=0;right=0;editable=1;overflow=hidden;whiteSpace=wrap;html=1;strokeColor=#004C99;rounded=1;" vertex="1" parent="43">
                    <mxGeometry width="30" height="30" as="geometry">
                        <mxRectangle width="30" height="30" as="alternateBounds"/>
                    </mxGeometry>
                </mxCell>
                <mxCell id="45" value="&lt;font style=&quot;text-align: center;&quot; color=&quot;#c3abd0&quot;&gt;telefono&amp;nbsp;&lt;/font&gt;&lt;font style=&quot;text-align: center;&quot; color=&quot;#ea6b66&quot;&gt;VARCHAR(255)&lt;/font&gt;" style="shape=partialRectangle;connectable=0;fillColor=none;top=0;left=0;bottom=0;right=0;align=left;spacingLeft=6;overflow=hidden;whiteSpace=wrap;html=1;strokeColor=#004C99;rounded=1;" vertex="1" parent="43">
                    <mxGeometry x="30" width="300" height="30" as="geometry">
                        <mxRectangle width="300" height="30" as="alternateBounds"/>
                    </mxGeometry>
                </mxCell>
                <mxCell id="BtXo0TBB_qfzZxBrbs0A-154" value="&lt;span style=&quot;color: rgb(51, 255, 51);&quot;&gt;id int()&lt;/span&gt;" style="text;html=1;align=center;verticalAlign=middle;whiteSpace=wrap;rounded=1;direction=east;flipV=0;flipH=0;strokeColor=#004C99;" parent="1" vertex="1">
                    <mxGeometry x="30" y="640" width="290" height="30" as="geometry"/>
                </mxCell>
                <mxCell id="BtXo0TBB_qfzZxBrbs0A-44" value="&lt;h2&gt;&lt;font color=&quot;#66b2ff&quot;&gt;auto_usate&lt;/font&gt;&lt;/h2&gt;" style="shape=table;startSize=30;container=1;collapsible=1;childLayout=tableLayout;fixedRows=1;rowLines=0;fontStyle=1;align=center;resizeLast=1;html=1;strokeColor=#C3ABD0;rounded=1;" parent="1" vertex="1">
                    <mxGeometry x="469.99999999999994" y="190" width="330" height="210" as="geometry"/>
                </mxCell>
                <mxCell id="BtXo0TBB_qfzZxBrbs0A-45" value="" style="shape=tableRow;horizontal=0;startSize=0;swimlaneHead=0;swimlaneBody=0;fillColor=none;collapsible=0;dropTarget=0;points=[[0,0.5],[1,0.5]];portConstraint=eastwest;top=0;left=0;right=0;bottom=1;strokeColor=#C3ABD0;rounded=1;" parent="BtXo0TBB_qfzZxBrbs0A-44" vertex="1">
                    <mxGeometry y="30" width="330" height="30" as="geometry"/>
                </mxCell>
                <mxCell id="BtXo0TBB_qfzZxBrbs0A-46" value="&lt;font color=&quot;#33ff33&quot;&gt;PK&lt;/font&gt;" style="shape=partialRectangle;connectable=0;fillColor=none;top=0;left=0;bottom=0;right=0;fontStyle=1;overflow=hidden;whiteSpace=wrap;html=1;strokeColor=#C3ABD0;rounded=1;" parent="BtXo0TBB_qfzZxBrbs0A-45" vertex="1">
                    <mxGeometry width="30" height="30" as="geometry">
                        <mxRectangle width="30" height="30" as="alternateBounds"/>
                    </mxGeometry>
                </mxCell>
                <mxCell id="BtXo0TBB_qfzZxBrbs0A-47" value="" style="shape=partialRectangle;connectable=0;fillColor=none;top=0;left=0;bottom=0;right=0;align=left;spacingLeft=6;fontStyle=5;overflow=hidden;whiteSpace=wrap;html=1;strokeColor=#C3ABD0;rounded=1;" parent="BtXo0TBB_qfzZxBrbs0A-45" vertex="1">
                    <mxGeometry x="30" width="300" height="30" as="geometry">
                        <mxRectangle width="300" height="30" as="alternateBounds"/>
                    </mxGeometry>
                </mxCell>
                <mxCell id="BtXo0TBB_qfzZxBrbs0A-48" value="" style="shape=tableRow;horizontal=0;startSize=0;swimlaneHead=0;swimlaneBody=0;fillColor=none;collapsible=0;dropTarget=0;points=[[0,0.5],[1,0.5]];portConstraint=eastwest;top=0;left=0;right=0;bottom=0;strokeColor=#C3ABD0;rounded=1;" parent="BtXo0TBB_qfzZxBrbs0A-44" vertex="1">
                    <mxGeometry y="60" width="330" height="30" as="geometry"/>
                </mxCell>
                <mxCell id="BtXo0TBB_qfzZxBrbs0A-49" value="&lt;font color=&quot;#66ff66&quot;&gt;FK&lt;/font&gt;" style="shape=partialRectangle;connectable=0;fillColor=none;top=0;left=0;bottom=0;right=0;editable=1;overflow=hidden;whiteSpace=wrap;html=1;strokeColor=#C3ABD0;rounded=1;" parent="BtXo0TBB_qfzZxBrbs0A-48" vertex="1">
                    <mxGeometry width="30" height="30" as="geometry">
                        <mxRectangle width="30" height="30" as="alternateBounds"/>
                    </mxGeometry>
                </mxCell>
                <mxCell id="BtXo0TBB_qfzZxBrbs0A-50" value="&lt;span style=&quot;text-align: center;&quot;&gt;&lt;font color=&quot;#66ff66&quot;&gt;vendita_id&lt;/font&gt;&lt;font color=&quot;#c3abd0&quot;&gt;&amp;nbsp;&lt;/font&gt;&lt;font color=&quot;#66ff66&quot;&gt;bigint(20) unsigned&lt;/font&gt;&lt;/span&gt;" style="shape=partialRectangle;connectable=0;fillColor=none;top=0;left=0;bottom=0;right=0;align=left;spacingLeft=6;overflow=hidden;whiteSpace=wrap;html=1;strokeColor=#C3ABD0;rounded=1;" parent="BtXo0TBB_qfzZxBrbs0A-48" vertex="1">
                    <mxGeometry x="30" width="300" height="30" as="geometry">
                        <mxRectangle width="300" height="30" as="alternateBounds"/>
                    </mxGeometry>
                </mxCell>
                <mxCell id="BtXo0TBB_qfzZxBrbs0A-51" value="" style="shape=tableRow;horizontal=0;startSize=0;swimlaneHead=0;swimlaneBody=0;fillColor=none;collapsible=0;dropTarget=0;points=[[0,0.5],[1,0.5]];portConstraint=eastwest;top=0;left=0;right=0;bottom=0;strokeColor=#C3ABD0;rounded=1;" parent="BtXo0TBB_qfzZxBrbs0A-44" vertex="1">
                    <mxGeometry y="90" width="330" height="30" as="geometry"/>
                </mxCell>
                <mxCell id="BtXo0TBB_qfzZxBrbs0A-52" value="" style="shape=partialRectangle;connectable=0;fillColor=none;top=0;left=0;bottom=0;right=0;editable=1;overflow=hidden;whiteSpace=wrap;html=1;strokeColor=#C3ABD0;rounded=1;" parent="BtXo0TBB_qfzZxBrbs0A-51" vertex="1">
                    <mxGeometry width="30" height="30" as="geometry">
                        <mxRectangle width="30" height="30" as="alternateBounds"/>
                    </mxGeometry>
                </mxCell>
                <mxCell id="BtXo0TBB_qfzZxBrbs0A-53" value="&lt;span style=&quot;text-align: center;&quot;&gt;&lt;font color=&quot;#c3abd0&quot;&gt;titolo&amp;nbsp;&lt;/font&gt;&lt;/span&gt;&lt;span style=&quot;color: rgb(234, 107, 102); text-align: center;&quot;&gt;VARCHAR(255)&lt;/span&gt;&lt;span style=&quot;text-align: center;&quot;&gt;&lt;font color=&quot;#c3abd0&quot;&gt;&lt;br&gt;&lt;/font&gt;&lt;/span&gt;" style="shape=partialRectangle;connectable=0;fillColor=none;top=0;left=0;bottom=0;right=0;align=left;spacingLeft=6;overflow=hidden;whiteSpace=wrap;html=1;strokeColor=#C3ABD0;rounded=1;" parent="BtXo0TBB_qfzZxBrbs0A-51" vertex="1">
                    <mxGeometry x="30" width="300" height="30" as="geometry">
                        <mxRectangle width="300" height="30" as="alternateBounds"/>
                    </mxGeometry>
                </mxCell>
                <mxCell id="BtXo0TBB_qfzZxBrbs0A-54" value="" style="shape=tableRow;horizontal=0;startSize=0;swimlaneHead=0;swimlaneBody=0;fillColor=none;collapsible=0;dropTarget=0;points=[[0,0.5],[1,0.5]];portConstraint=eastwest;top=0;left=0;right=0;bottom=0;strokeColor=#C3ABD0;rounded=1;" parent="BtXo0TBB_qfzZxBrbs0A-44" vertex="1">
                    <mxGeometry y="120" width="330" height="30" as="geometry"/>
                </mxCell>
                <mxCell id="BtXo0TBB_qfzZxBrbs0A-55" value="" style="shape=partialRectangle;connectable=0;fillColor=none;top=0;left=0;bottom=0;right=0;editable=1;overflow=hidden;whiteSpace=wrap;html=1;strokeColor=#C3ABD0;rounded=1;" parent="BtXo0TBB_qfzZxBrbs0A-54" vertex="1">
                    <mxGeometry width="30" height="30" as="geometry">
                        <mxRectangle width="30" height="30" as="alternateBounds"/>
                    </mxGeometry>
                </mxCell>
                <mxCell id="BtXo0TBB_qfzZxBrbs0A-56" value="&lt;span style=&quot;text-align: center;&quot;&gt;&lt;font color=&quot;#c3abd0&quot;&gt;nome&amp;nbsp;&lt;/font&gt;&lt;/span&gt;&lt;span style=&quot;color: rgb(234, 107, 102); text-align: center;&quot;&gt;VARCHAR(255)&lt;/span&gt;" style="shape=partialRectangle;connectable=0;fillColor=none;top=0;left=0;bottom=0;right=0;align=left;spacingLeft=6;overflow=hidden;whiteSpace=wrap;html=1;strokeColor=#C3ABD0;rounded=1;" parent="BtXo0TBB_qfzZxBrbs0A-54" vertex="1">
                    <mxGeometry x="30" width="300" height="30" as="geometry">
                        <mxRectangle width="300" height="30" as="alternateBounds"/>
                    </mxGeometry>
                </mxCell>
                <mxCell id="BtXo0TBB_qfzZxBrbs0A-57" value="" style="shape=tableRow;horizontal=0;startSize=0;swimlaneHead=0;swimlaneBody=0;fillColor=none;collapsible=0;dropTarget=0;points=[[0,0.5],[1,0.5]];portConstraint=eastwest;top=0;left=0;right=0;bottom=0;strokeColor=#C3ABD0;rounded=1;" parent="BtXo0TBB_qfzZxBrbs0A-44" vertex="1">
                    <mxGeometry y="150" width="330" height="30" as="geometry"/>
                </mxCell>
                <mxCell id="BtXo0TBB_qfzZxBrbs0A-58" value="" style="shape=partialRectangle;connectable=0;fillColor=none;top=0;left=0;bottom=0;right=0;editable=1;overflow=hidden;whiteSpace=wrap;html=1;strokeColor=#C3ABD0;rounded=1;" parent="BtXo0TBB_qfzZxBrbs0A-57" vertex="1">
                    <mxGeometry width="30" height="30" as="geometry">
                        <mxRectangle width="30" height="30" as="alternateBounds"/>
                    </mxGeometry>
                </mxCell>
                <mxCell id="BtXo0TBB_qfzZxBrbs0A-59" value="&lt;div style=&quot;text-align: center;&quot;&gt;&lt;font color=&quot;#c3abd0&quot;&gt;modello&amp;nbsp;&lt;/font&gt;&lt;span style=&quot;color: rgb(234, 107, 102);&quot;&gt;VARCHAR(255)&lt;/span&gt;&lt;br&gt;&lt;/div&gt;" style="shape=partialRectangle;connectable=0;fillColor=none;top=0;left=0;bottom=0;right=0;align=left;spacingLeft=6;overflow=hidden;whiteSpace=wrap;html=1;strokeColor=#C3ABD0;rounded=1;" parent="BtXo0TBB_qfzZxBrbs0A-57" vertex="1">
                    <mxGeometry x="30" width="300" height="30" as="geometry">
                        <mxRectangle width="300" height="30" as="alternateBounds"/>
                    </mxGeometry>
                </mxCell>
                <mxCell id="BtXo0TBB_qfzZxBrbs0A-60" value="" style="shape=tableRow;horizontal=0;startSize=0;swimlaneHead=0;swimlaneBody=0;fillColor=none;collapsible=0;dropTarget=0;points=[[0,0.5],[1,0.5]];portConstraint=eastwest;top=0;left=0;right=0;bottom=0;strokeColor=#C3ABD0;rounded=1;" parent="BtXo0TBB_qfzZxBrbs0A-44" vertex="1">
                    <mxGeometry y="180" width="330" height="30" as="geometry"/>
                </mxCell>
                <mxCell id="BtXo0TBB_qfzZxBrbs0A-61" value="" style="shape=partialRectangle;connectable=0;fillColor=none;top=0;left=0;bottom=0;right=0;editable=1;overflow=hidden;whiteSpace=wrap;html=1;strokeColor=#C3ABD0;rounded=1;" parent="BtXo0TBB_qfzZxBrbs0A-60" vertex="1">
                    <mxGeometry width="30" height="30" as="geometry">
                        <mxRectangle width="30" height="30" as="alternateBounds"/>
                    </mxGeometry>
                </mxCell>
                <mxCell id="BtXo0TBB_qfzZxBrbs0A-62" value="&lt;font style=&quot;text-align: center;&quot; color=&quot;#c3abd0&quot;&gt;best_seller&amp;nbsp;&lt;/font&gt;&lt;span style=&quot;text-align: center; color: rgb(234, 107, 102);&quot;&gt;VARCHAR(255)&lt;/span&gt;" style="shape=partialRectangle;connectable=0;fillColor=none;top=0;left=0;bottom=0;right=0;align=left;spacingLeft=6;overflow=hidden;whiteSpace=wrap;html=1;strokeColor=#C3ABD0;rounded=1;" parent="BtXo0TBB_qfzZxBrbs0A-60" vertex="1">
                    <mxGeometry x="30" width="300" height="30" as="geometry">
                        <mxRectangle width="300" height="30" as="alternateBounds"/>
                    </mxGeometry>
                </mxCell>
                <mxCell id="BtXo0TBB_qfzZxBrbs0A-63" value="&lt;span style=&quot;color: rgb(51, 255, 51);&quot;&gt;id int() unsigned AUTO_INCREMENT&lt;/span&gt;" style="text;html=1;align=center;verticalAlign=middle;whiteSpace=wrap;rounded=1;strokeColor=#C3ABD0;" parent="1" vertex="1">
                    <mxGeometry x="500.00000000000006" y="220" width="295.93" height="30" as="geometry"/>
                </mxCell>
                <mxCell id="5" value="" style="edgeStyle=orthogonalEdgeStyle;fontSize=12;html=1;endArrow=ERoneToMany;exitX=1;exitY=0.5;exitDx=0;exitDy=0;entryX=0;entryY=0.5;entryDx=0;entryDy=0;curved=1;" edge="1" parent="1" source="BtXo0TBB_qfzZxBrbs0A-3" target="BtXo0TBB_qfzZxBrbs0A-48">
                    <mxGeometry width="100" height="100" relative="1" as="geometry">
                        <mxPoint x="900" y="810" as="sourcePoint"/>
                        <mxPoint x="1000" y="710" as="targetPoint"/>
                    </mxGeometry>
                </mxCell>
                <mxCell id="6" value="&lt;h2&gt;&lt;font color=&quot;#66b2ff&quot;&gt;e-bike&lt;/font&gt;&lt;/h2&gt;" style="shape=table;startSize=30;container=1;collapsible=1;childLayout=tableLayout;fixedRows=1;rowLines=0;fontStyle=1;align=center;resizeLast=1;html=1;strokeColor=#C3ABD0;rounded=1;" vertex="1" parent="1">
                    <mxGeometry x="465.92999999999995" y="959" width="330" height="210" as="geometry"/>
                </mxCell>
                <mxCell id="7" value="" style="shape=tableRow;horizontal=0;startSize=0;swimlaneHead=0;swimlaneBody=0;fillColor=none;collapsible=0;dropTarget=0;points=[[0,0.5],[1,0.5]];portConstraint=eastwest;top=0;left=0;right=0;bottom=1;strokeColor=#C3ABD0;rounded=1;" vertex="1" parent="6">
                    <mxGeometry y="30" width="330" height="30" as="geometry"/>
                </mxCell>
                <mxCell id="8" value="&lt;font color=&quot;#33ff33&quot;&gt;PK&lt;/font&gt;" style="shape=partialRectangle;connectable=0;fillColor=none;top=0;left=0;bottom=0;right=0;fontStyle=1;overflow=hidden;whiteSpace=wrap;html=1;strokeColor=#C3ABD0;rounded=1;" vertex="1" parent="7">
                    <mxGeometry width="30" height="30" as="geometry">
                        <mxRectangle width="30" height="30" as="alternateBounds"/>
                    </mxGeometry>
                </mxCell>
                <mxCell id="9" value="" style="shape=partialRectangle;connectable=0;fillColor=none;top=0;left=0;bottom=0;right=0;align=left;spacingLeft=6;fontStyle=5;overflow=hidden;whiteSpace=wrap;html=1;strokeColor=#C3ABD0;rounded=1;" vertex="1" parent="7">
                    <mxGeometry x="30" width="300" height="30" as="geometry">
                        <mxRectangle width="300" height="30" as="alternateBounds"/>
                    </mxGeometry>
                </mxCell>
                <mxCell id="10" value="" style="shape=tableRow;horizontal=0;startSize=0;swimlaneHead=0;swimlaneBody=0;fillColor=none;collapsible=0;dropTarget=0;points=[[0,0.5],[1,0.5]];portConstraint=eastwest;top=0;left=0;right=0;bottom=0;strokeColor=#C3ABD0;rounded=1;" vertex="1" parent="6">
                    <mxGeometry y="60" width="330" height="30" as="geometry"/>
                </mxCell>
                <mxCell id="11" value="&lt;font color=&quot;#66ff66&quot;&gt;FK&lt;/font&gt;" style="shape=partialRectangle;connectable=0;fillColor=none;top=0;left=0;bottom=0;right=0;editable=1;overflow=hidden;whiteSpace=wrap;html=1;strokeColor=#C3ABD0;rounded=1;" vertex="1" parent="10">
                    <mxGeometry width="30" height="30" as="geometry">
                        <mxRectangle width="30" height="30" as="alternateBounds"/>
                    </mxGeometry>
                </mxCell>
                <mxCell id="12" value="&lt;div style=&quot;text-align: center;&quot;&gt;&lt;span style=&quot;color: rgb(51, 255, 51);&quot;&gt;noleggio_id bigint(20) unsigned&lt;/span&gt;&lt;br&gt;&lt;/div&gt;" style="shape=partialRectangle;connectable=0;fillColor=none;top=0;left=0;bottom=0;right=0;align=left;spacingLeft=6;overflow=hidden;whiteSpace=wrap;html=1;strokeColor=#C3ABD0;rounded=1;" vertex="1" parent="10">
                    <mxGeometry x="30" width="300" height="30" as="geometry">
                        <mxRectangle width="300" height="30" as="alternateBounds"/>
                    </mxGeometry>
                </mxCell>
                <mxCell id="13" value="" style="shape=tableRow;horizontal=0;startSize=0;swimlaneHead=0;swimlaneBody=0;fillColor=none;collapsible=0;dropTarget=0;points=[[0,0.5],[1,0.5]];portConstraint=eastwest;top=0;left=0;right=0;bottom=0;strokeColor=#C3ABD0;rounded=1;" vertex="1" parent="6">
                    <mxGeometry y="90" width="330" height="30" as="geometry"/>
                </mxCell>
                <mxCell id="14" value="" style="shape=partialRectangle;connectable=0;fillColor=none;top=0;left=0;bottom=0;right=0;editable=1;overflow=hidden;whiteSpace=wrap;html=1;strokeColor=#C3ABD0;rounded=1;" vertex="1" parent="13">
                    <mxGeometry width="30" height="30" as="geometry">
                        <mxRectangle width="30" height="30" as="alternateBounds"/>
                    </mxGeometry>
                </mxCell>
                <mxCell id="15" value="&lt;span style=&quot;text-align: center;&quot;&gt;&lt;font color=&quot;#c3abd0&quot;&gt;titolo&amp;nbsp;&lt;/font&gt;&lt;/span&gt;&lt;span style=&quot;color: rgb(234, 107, 102); text-align: center;&quot;&gt;VARCHAR(255)&lt;/span&gt;" style="shape=partialRectangle;connectable=0;fillColor=none;top=0;left=0;bottom=0;right=0;align=left;spacingLeft=6;overflow=hidden;whiteSpace=wrap;html=1;strokeColor=#C3ABD0;rounded=1;" vertex="1" parent="13">
                    <mxGeometry x="30" width="300" height="30" as="geometry">
                        <mxRectangle width="300" height="30" as="alternateBounds"/>
                    </mxGeometry>
                </mxCell>
                <mxCell id="16" value="" style="shape=tableRow;horizontal=0;startSize=0;swimlaneHead=0;swimlaneBody=0;fillColor=none;collapsible=0;dropTarget=0;points=[[0,0.5],[1,0.5]];portConstraint=eastwest;top=0;left=0;right=0;bottom=0;strokeColor=#C3ABD0;rounded=1;" vertex="1" parent="6">
                    <mxGeometry y="120" width="330" height="30" as="geometry"/>
                </mxCell>
                <mxCell id="17" value="" style="shape=partialRectangle;connectable=0;fillColor=none;top=0;left=0;bottom=0;right=0;editable=1;overflow=hidden;whiteSpace=wrap;html=1;strokeColor=#C3ABD0;rounded=1;" vertex="1" parent="16">
                    <mxGeometry width="30" height="30" as="geometry">
                        <mxRectangle width="30" height="30" as="alternateBounds"/>
                    </mxGeometry>
                </mxCell>
                <mxCell id="18" value="&lt;span style=&quot;text-align: center;&quot;&gt;&lt;font color=&quot;#c3abd0&quot;&gt;nome&amp;nbsp;&lt;/font&gt;&lt;/span&gt;&lt;span style=&quot;color: rgb(234, 107, 102); text-align: center;&quot;&gt;VARCHAR(255)&lt;/span&gt;" style="shape=partialRectangle;connectable=0;fillColor=none;top=0;left=0;bottom=0;right=0;align=left;spacingLeft=6;overflow=hidden;whiteSpace=wrap;html=1;strokeColor=#C3ABD0;rounded=1;" vertex="1" parent="16">
                    <mxGeometry x="30" width="300" height="30" as="geometry">
                        <mxRectangle width="300" height="30" as="alternateBounds"/>
                    </mxGeometry>
                </mxCell>
                <mxCell id="19" value="" style="shape=tableRow;horizontal=0;startSize=0;swimlaneHead=0;swimlaneBody=0;fillColor=none;collapsible=0;dropTarget=0;points=[[0,0.5],[1,0.5]];portConstraint=eastwest;top=0;left=0;right=0;bottom=0;strokeColor=#C3ABD0;rounded=1;" vertex="1" parent="6">
                    <mxGeometry y="150" width="330" height="30" as="geometry"/>
                </mxCell>
                <mxCell id="20" value="" style="shape=partialRectangle;connectable=0;fillColor=none;top=0;left=0;bottom=0;right=0;editable=1;overflow=hidden;whiteSpace=wrap;html=1;strokeColor=#C3ABD0;rounded=1;" vertex="1" parent="19">
                    <mxGeometry width="30" height="30" as="geometry">
                        <mxRectangle width="30" height="30" as="alternateBounds"/>
                    </mxGeometry>
                </mxCell>
                <mxCell id="21" value="&lt;font style=&quot;text-align: center;&quot; color=&quot;#c3abd0&quot;&gt;modello&amp;nbsp;&lt;/font&gt;&lt;span style=&quot;text-align: center; color: rgb(234, 107, 102);&quot;&gt;VARCHAR(255)&lt;/span&gt;" style="shape=partialRectangle;connectable=0;fillColor=none;top=0;left=0;bottom=0;right=0;align=left;spacingLeft=6;overflow=hidden;whiteSpace=wrap;html=1;strokeColor=#C3ABD0;rounded=1;" vertex="1" parent="19">
                    <mxGeometry x="30" width="300" height="30" as="geometry">
                        <mxRectangle width="300" height="30" as="alternateBounds"/>
                    </mxGeometry>
                </mxCell>
                <mxCell id="22" value="" style="shape=tableRow;horizontal=0;startSize=0;swimlaneHead=0;swimlaneBody=0;fillColor=none;collapsible=0;dropTarget=0;points=[[0,0.5],[1,0.5]];portConstraint=eastwest;top=0;left=0;right=0;bottom=0;strokeColor=#C3ABD0;rounded=1;" vertex="1" parent="6">
                    <mxGeometry y="180" width="330" height="30" as="geometry"/>
                </mxCell>
                <mxCell id="23" value="" style="shape=partialRectangle;connectable=0;fillColor=none;top=0;left=0;bottom=0;right=0;editable=1;overflow=hidden;whiteSpace=wrap;html=1;strokeColor=#C3ABD0;rounded=1;" vertex="1" parent="22">
                    <mxGeometry width="30" height="30" as="geometry">
                        <mxRectangle width="30" height="30" as="alternateBounds"/>
                    </mxGeometry>
                </mxCell>
                <mxCell id="24" value="&lt;font style=&quot;text-align: center;&quot; color=&quot;#c3abd0&quot;&gt;best_seller&amp;nbsp;&lt;/font&gt;&lt;span style=&quot;text-align: center; color: rgb(234, 107, 102);&quot;&gt;VARCHAR(255)&lt;/span&gt;" style="shape=partialRectangle;connectable=0;fillColor=none;top=0;left=0;bottom=0;right=0;align=left;spacingLeft=6;overflow=hidden;whiteSpace=wrap;html=1;strokeColor=#C3ABD0;rounded=1;" vertex="1" parent="22">
                    <mxGeometry x="30" width="300" height="30" as="geometry">
                        <mxRectangle width="300" height="30" as="alternateBounds"/>
                    </mxGeometry>
                </mxCell>
                <mxCell id="25" value="&lt;span style=&quot;color: rgb(51, 255, 51);&quot;&gt;id int() unsigned AUTO_INCREMENT&lt;/span&gt;" style="text;html=1;align=center;verticalAlign=middle;whiteSpace=wrap;rounded=1;strokeColor=#C3ABD0;" vertex="1" parent="1">
                    <mxGeometry x="480.00000000000006" y="989" width="290" height="30" as="geometry"/>
                </mxCell>
                <mxCell id="28" value="" style="edgeStyle=orthogonalEdgeStyle;fontSize=12;html=1;endArrow=ERoneToMany;fontColor=#66FF66;exitX=1;exitY=0.5;exitDx=0;exitDy=0;entryX=0;entryY=0.5;entryDx=0;entryDy=0;curved=1;" edge="1" parent="1" source="u5_9nWSxK2c27GnjZgB_-235" target="10">
                    <mxGeometry width="100" height="100" relative="1" as="geometry">
                        <mxPoint x="900" y="1050" as="sourcePoint"/>
                        <mxPoint x="1000" y="950" as="targetPoint"/>
                    </mxGeometry>
                </mxCell>
                <mxCell id="38" value="" style="edgeStyle=orthogonalEdgeStyle;fontSize=12;html=1;endArrow=ERoneToMany;fontColor=#66FF66;exitX=1.002;exitY=0.667;exitDx=0;exitDy=0;entryX=0;entryY=0.5;entryDx=0;entryDy=0;exitPerimeter=0;curved=1;" edge="1" parent="1" source="BtXo0TBB_qfzZxBrbs0A-136" target="u5_9nWSxK2c27GnjZgB_-214">
                    <mxGeometry width="100" height="100" relative="1" as="geometry">
                        <mxPoint x="340" y="755" as="sourcePoint"/>
                        <mxPoint x="650" y="780" as="targetPoint"/>
                        <Array as="points">
                            <mxPoint x="331" y="700"/>
                            <mxPoint x="350" y="700"/>
                            <mxPoint x="350" y="840"/>
                            <mxPoint x="74" y="840"/>
                            <mxPoint x="74" y="945"/>
                        </Array>
                    </mxGeometry>
                </mxCell>
                <mxCell id="39" value="" style="edgeStyle=orthogonalEdgeStyle;fontSize=12;html=1;endArrow=ERoneToMany;fontColor=#66FF66;entryX=0;entryY=0.5;entryDx=0;entryDy=0;exitX=1;exitY=0.233;exitDx=0;exitDy=0;exitPerimeter=0;curved=1;" edge="1" parent="1" source="BtXo0TBB_qfzZxBrbs0A-136" target="BtXo0TBB_qfzZxBrbs0A-6">
                    <mxGeometry width="100" height="100" relative="1" as="geometry">
                        <mxPoint x="340" y="725" as="sourcePoint"/>
                        <mxPoint x="540" y="730" as="targetPoint"/>
                    </mxGeometry>
                </mxCell>
            </root>
        </mxGraphModel>
    </diagram>
</mxfile>